<svg viewBox="0 0 24 24" fill="none"
    xmlns="http://www.w3.org/2000/svg">
    <path fill-rule="evenodd" clip-rule="evenodd" d="M19.1001 18.16C19.6901 17.26 19.9101 16.8 20.3601 15.79C17.0401 14.53 16.5101 9.79999 19.7901 7.98999C18.7901 6.72999 17.3801 6 16.0501 6C15.0901 6 14.4301 6.25001 13.8401 6.48001C13.3401 6.67001 12.8901 6.84 12.3301 6.84C11.7301 6.84 11.2001 6.65001 10.6401 6.45001C10.0301 6.23001 9.39006 6 8.59006 6C7.10006 6 5.51007 6.91 4.50007 8.47C3.08007 10.67 3.33007 14.79 5.62007 18.31C6.44007 19.57 7.54007 20.98 8.97007 21C9.57007 21.01 9.96007 20.83 10.3901 20.64C10.8801 20.42 11.4101 20.18 12.3401 20.18C13.2701 20.17 13.7901 20.42 14.2801 20.64C14.7001 20.83 15.0801 21.01 15.6701 21C17.1201 20.98 18.2801 19.42 19.1001 18.16Z" fill="black"/>
    <path fill-rule="evenodd" clip-rule="evenodd" d="M15.7115 2C15.8715 3.1 15.4215 4.19001 14.8315 4.95001C14.2015 5.77001 13.1015 6.41 12.0415 6.37C11.8515 5.31 12.3415 4.21999 12.9415 3.48999C13.6115 2.68999 14.7415 2.07 15.7115 2Z" fill="black"/>
</svg>
