<svg width="24" height="24" viewBox="0 0 24 24" fill="none" xmlns="http://www.w3.org/2000/svg">
<g clip-path="url(#clip0_435_823)">
<path d="M21.75 15.75C20.9231 15.75 20.25 15.0773 20.25 14.25V8.25C20.25 3.70093 16.5491 0 12 0C7.45093 0 3.75 3.70093 3.75 8.25V14.25C3.75 15.0773 3.07727 15.75 2.25 15.75C1.83582 15.75 1.5 16.0858 1.5 16.5V18.75C1.5 19.1642 1.83582 19.5 2.25 19.5H21.75C22.1646 19.5 22.5 19.1642 22.5 18.75V16.5C22.5 16.0858 22.1646 15.75 21.75 15.75Z" fill="black"/>
<path d="M7.76245 21C8.38217 22.7449 10.045 24 11.9999 24C13.9548 24 15.6177 22.7449 16.2374 21H7.76245Z" fill="black"/>
</g>
<defs>
<clipPath id="clip0_435_823">
<rect width="24" height="24" fill="white"/>
</clipPath>
</defs>
</svg>
