<svg width="24" height="24" viewBox="0 0 24 24" fill="none" xmlns="http://www.w3.org/2000/svg">
    <path
        d="M12.8648 19.7998L12.8648 19.7998L12.8612 19.7977C12.6024 19.6474 12.2773 19.5951 12.0014 19.5951C11.7275 19.5951 11.4018 19.6466 11.1447 19.8002C11.1441 19.8006 11.1435 19.801 11.1429 19.8013L8.14604 21.5694L8.14502 21.57C7.3224 22.058 6.71271 22.1793 6.28766 22.1665C5.86702 22.1539 5.58492 22.0087 5.4153 21.8865C5.25152 21.765 5.0277 21.5401 4.88822 21.1422C4.74749 20.7407 4.67868 20.1229 4.89686 19.1945L4.89726 19.1927L5.60642 16.1264C5.67454 15.8482 5.63259 15.5357 5.56044 15.2862C5.4873 15.0332 5.35504 14.7479 5.15367 14.5465L2.67367 12.0665C2.11076 11.5036 1.8794 11.0104 1.79425 10.6307C1.70875 10.2493 1.76279 9.94685 1.82537 9.75544C1.88858 9.56208 2.02365 9.28342 2.31675 9.0219C2.60842 8.76165 3.08289 8.49479 3.86255 8.36323C3.86278 8.36319 3.86301 8.36315 3.86325 8.36311L7.05207 7.83331L7.05232 7.83327C7.31185 7.79001 7.56873 7.64779 7.76237 7.50368C7.95421 7.36092 8.16375 7.15695 8.27859 6.92117L10.0471 3.39418L10.0479 3.39256C10.4124 2.65901 10.8147 2.27387 11.1529 2.06897C11.4922 1.86342 11.7988 1.82007 12.0001 1.82007C12.2014 1.82007 12.508 1.86342 12.8473 2.06897C13.1855 2.27387 13.5879 2.65901 13.9523 3.39256L13.9529 3.39368L15.7129 6.91368L15.7129 6.9137L15.7162 6.92023C15.8351 7.14939 16.0436 7.35114 16.2381 7.49479C16.4318 7.63784 16.6885 7.78002 16.9479 7.82327L16.9482 7.82331L20.1375 8.35319C20.1376 8.35321 20.1378 8.35324 20.1379 8.35326C20.9234 8.485 21.3999 8.75222 21.691 9.0119C21.9833 9.27275 22.1144 9.54923 22.1722 9.73711C22.2324 9.93259 22.2843 10.2378 22.1985 10.6207C22.113 11.0018 21.8833 11.4951 21.3258 12.0573C21.3256 12.0575 21.3254 12.0577 21.3251 12.058L18.8466 14.5465C18.8463 14.5468 18.8461 14.547 18.8459 14.5472C18.6439 14.7496 18.5145 15.0332 18.443 15.2843C18.3711 15.5368 18.3333 15.8418 18.391 16.1138L18.3909 16.1138L18.393 16.1227L19.1028 19.1921C19.1029 19.1923 19.1029 19.1924 19.1029 19.1925C19.3166 20.1218 19.248 20.7407 19.1079 21.1432C18.9693 21.5415 18.7477 21.7656 18.5854 21.8861C18.4013 22.0181 18.102 22.1701 17.6601 22.1701C17.2399 22.1701 16.6469 22.0357 15.8539 21.5693C15.8538 21.5692 15.8537 21.5692 15.8536 21.5691L12.8648 19.7998Z"
        stroke="#FFC60F" />
    <path
        d="M8.40012 22.0001L11.4001 20.2301C11.5498 20.1402 11.7743 20.0952 12.0001 20.0951V1.32007C11.4501 1.32007 10.4001 1.56007 9.60012 3.17007L7.83012 6.70007C7.70012 6.97007 7.27012 7.29007 6.97012 7.34007L3.78012 7.87007C2.06012 8.16007 1.52012 9.08007 1.35012 9.60007C1.18012 10.1201 1.08012 11.1801 2.32012 12.4201L4.80012 14.9001C5.04012 15.1401 5.20012 15.6901 5.12012 16.0101L4.41012 19.0801C3.94012 21.0801 4.66012 21.9501 5.12012 22.2901C5.59012 22.6301 6.63012 23.0501 8.40012 22.0001Z"
        fill="#FFC60F" />
</svg>