<svg width="24" height="24" viewBox="0 0 24 24" fill="none" xmlns="http://www.w3.org/2000/svg">
<path fill-rule="evenodd" clip-rule="evenodd" d="M4.04636 2.55489C4.60749 1.88678 5.43534 1.50098 6.30784 1.50098H17.7347C18.6132 1.50098 19.446 1.89207 20.0071 2.56803L23.3192 6.55821C24.2379 7.66512 24.2255 9.27299 23.2898 10.3656L14.2641 20.9038C13.0873 22.2778 10.9629 22.2804 9.78273 20.9093L0.715012 10.375C-0.229484 9.27773 -0.239312 7.65758 0.691812 6.54895L4.04636 2.55489Z" fill="#C2C2C2"/>
<path fill-rule="evenodd" clip-rule="evenodd" d="M4.04636 2.55489C4.60749 1.88678 5.43534 1.50098 6.30784 1.50098H17.7347C18.6132 1.50098 19.446 1.89207 20.0071 2.56803L23.3192 6.55821C24.2379 7.66512 24.2255 9.27299 23.2898 10.3656L14.2641 20.9038C13.0873 22.2778 10.9629 22.2804 9.78273 20.9093L0.715012 10.375C-0.229484 9.27773 -0.239312 7.65758 0.691812 6.54895L4.04636 2.55489ZM6.30784 3.79004C6.1116 3.79004 5.92541 3.87681 5.7992 4.02708L2.44466 8.02114C2.23524 8.27048 2.23745 8.63487 2.44988 8.88166L11.5176 19.416C11.783 19.7243 12.2608 19.7238 12.5255 19.4147L21.5512 8.87653C21.7617 8.6308 21.7645 8.26917 21.5578 8.02022L18.2458 4.03003C18.1196 3.878 17.9323 3.79004 17.7347 3.79004H6.30784Z" fill="#777777"/>
</svg>
